<?xml version="1.0" standalone="no"?>
<!DOCTYPE svg PUBLIC "-//W3C//DTD SVG 20010904//EN"
 "http://www.w3.org/TR/2001/REC-SVG-20010904/DTD/svg10.dtd">
<svg version="1.0" xmlns="http://www.w3.org/2000/svg"
 width="700.000000pt" height="700.000000pt" viewBox="0 0 700.000000 700.000000"
 preserveAspectRatio="xMidYMid meet">
<metadata>
Created by potrace 1.11, written by Peter Selinger 2001-2013
</metadata>
<g transform="translate(0.000000,700.000000) scale(0.100000,-0.100000)"
fill="#000000" stroke="none">
<path d="M1357 5763 c-9 -8 -9 -1519 0 -3061 l6 -1202 2129 0 2128 0 0 2135 0
2135 -2128 0 c-1171 0 -2132 -3 -2135 -7z m1130 -913 c105 -129 196 -236 201
-238 5 -1 97 105 203 237 l194 241 213 0 212 0 -2 -817 -3 -818 -207 -3 -208
-2 -1 312 c-1 172 -4 396 -8 496 l-6 184 -187 -226 c-103 -124 -192 -226 -197
-226 -6 0 -98 106 -205 236 l-196 236 0 -506 0 -506 -210 0 -210 0 0 820 0
820 212 -2 212 -3 193 -235z m2223 217 c154 -43 275 -112 380 -217 64 -64 143
-177 135 -191 -3 -4 -74 -54 -157 -110 l-152 -102 -25 34 c-51 69 -147 156
-202 182 -166 78 -384 43 -508 -81 -86 -86 -121 -180 -121 -327 0 -148 28
-223 117 -316 126 -132 344 -166 519 -79 57 28 149 112 199 184 l20 28 158
-106 c86 -59 157 -109 157 -111 0 -15 -80 -125 -130 -178 -103 -111 -222 -180
-385 -225 -86 -24 -365 -24 -454 1 -171 47 -267 103 -396 232 -86 86 -107 114
-148 195 -62 125 -78 189 -84 341 -6 145 9 243 56 357 106 256 355 449 648
502 72 13 309 5 373 -13z m-1330 -2992 l0 -125 -800 0 -800 0 0 125 0 125 800
0 800 0 0 -125z"/>
</g>
</svg>
