<svg xmlns="http://www.w3.org/2000/svg" width="140" height="140" viewBox="0 0 131.25 131.25">
  <defs>
    <clipPath id="a">
      <circle cx="70" cy="70" r="46.942566" fill="#13f102" stroke-width=".92220473" transform="rotate(47.693)" opacity=".99599627" stroke-linecap="square"/>
    </clipPath>
  </defs>
  <path fill="#509ef5" d="M -75.375459,96.597955 -2.2943372,30.499705 65.472629,105.16537 -7.3689859,171.17356 Z" transform="rotate(-47.693 -7.136 2.76)" clip-path="url(#a)" opacity=".97848744"/>
  <ellipse cx="83.301399" cy="45.080338" fill="#313030" fill-opacity=".96837942" rx="42.251881" ry="42.133636" opacity=".96676175" transform="translate(-17.676 20.545)"/>
  <path fill="#59e7de" fill-opacity=".8627451" d="M152.73454 -100.37314H160.5653911V-92.54196180000001H152.73454z" opacity=".78615735" transform="rotate(6.257 -1086.864 -697.675)"/>
  <path fill="#68e8e7" fill-opacity=".8627451" d="M141.14659 -111.96157H149.6508949V-103.45691029999999H141.14659z" opacity=".81738018" transform="rotate(6.257 -1086.864 -697.675)"/>
  <path fill="#7be2eb" fill-opacity=".8627451" d="M175.23698 -77.869759H183.06783109999998V-70.0385808H175.23698z" opacity=".86016044" transform="rotate(6.257 -1086.864 -697.675)"/>
  <path fill="#8beeef" fill-opacity=".8627451" d="M186.15147 -66.954803H194.65577489999998V-58.4501433H186.15147z" opacity=".81056333" transform="rotate(6.257 -1086.864 -697.675)"/>
  <path fill="#7aeae6" fill-opacity=".8627451" d="M129.89537 -111.96157H138.3996749V-103.45691029999999H129.89537z" opacity=".87027887" transform="rotate(6.257 -1086.864 -697.675)"/>
  <path fill="#4fe4e2" fill-opacity=".8627451" d="M118.64415 -111.96157H127.14845489999999V-103.45691029999999H118.64415z" opacity=".99135329" transform="rotate(6.257 -1086.864 -697.675)"/>
  <path fill="#83ebe5" fill-opacity=".8627451" d="M186.15147 -55.703114H194.65577489999998V-47.1984543H186.15147z" opacity=".90770078" transform="rotate(6.257 -1086.864 -697.675)"/>
  <path fill="#43c3e3" fill-opacity=".8627451" d="M186.15147 -44.45142H194.65577489999998V-35.9467603H186.15147z" opacity=".96968857" transform="rotate(6.257 -1086.864 -697.675)"/>
  <path fill="#6bcce9" fill-opacity=".8627451" d="M163.64903 -100.70988H172.1533349V-92.2052203H163.64903z" opacity=".84769862" transform="rotate(6.257 -1086.864 -697.675)"/>
  <path fill="#4aafe3" fill-opacity=".8627451" d="M174.90025 -89.458191H183.4045549V-80.9535313H174.90025z" opacity=".94415732" transform="rotate(6.257 -1086.864 -697.675)"/>
  <path fill="#53e5e7" fill-opacity=".8627451" d="M152.39781 -111.96157H160.9021149V-103.45691029999999H152.39781z" opacity=".93315872" transform="rotate(6.257 -1086.864 -697.675)"/>
  <path fill="#72d0e8" fill-opacity=".8627451" d="M186.15147 -78.206497H194.65577489999998V-69.7018373H186.15147z" opacity=".84990857" transform="rotate(6.257 -1086.864 -697.675)"/>
  <path fill="#49d3e3" fill-opacity=".8627451" d="M141.48332 -122.87652H149.31417109999998V-115.0453418H141.48332z" opacity=".89836324" transform="rotate(6.257 -1086.864 -697.675)"/>
  <path fill="#83dded" fill-opacity=".8627451" d="M130.2321 -122.87652H138.0629511V-115.0453418H130.2321z" opacity=".90700654" transform="rotate(6.257 -1086.864 -697.675)"/>
  <path fill="#6dcfe7" fill-opacity=".8627451" d="M141.48332 -100.37314H149.31417109999998V-92.54196180000001H141.48332z" opacity=".95167141" transform="rotate(6.257 -1086.864 -697.675)"/>
  <path fill="#74d6ec" fill-opacity=".8627451" d="M130.2321 -100.37314H138.0629511V-92.54196180000001H130.2321z" opacity=".82828315" transform="rotate(6.257 -1086.864 -697.675)"/>
  <path fill="#55e9e3" fill-opacity=".8627451" d="M175.23698 -66.618065H183.06783109999998V-58.786886800000005H175.23698z" opacity=".92478374" transform="rotate(6.257 -1086.864 -697.675)"/>
  <path fill="#6ee5ea" fill-opacity=".8627451" d="M175.23698 -55.366375H183.06783109999998V-47.535196799999994H175.23698z" opacity=".95105986" transform="rotate(6.257 -1086.864 -697.675)"/>
  <path fill="#87d5ec" fill-opacity=".8627451" d="M197.73943 -55.366375H205.5702811V-47.535196799999994H197.73943z" opacity=".92605896" transform="rotate(6.257 -1086.864 -697.675)"/>
  <path fill="#85ebec" fill-opacity=".8627451" d="M197.73943 -66.618065H205.5702811V-58.786886800000005H197.73943z" opacity=".81441764" transform="rotate(6.257 -1086.864 -697.675)"/>
  <path fill="#83d8eb" fill-opacity=".8627451" d="M163.64903 -111.96157H172.1533349V-103.45691029999999H163.64903z" opacity=".94611571" transform="rotate(6.257 -1086.864 -697.675)"/>
  <path fill="#8ddeee" fill-opacity=".8627451" d="M186.15147 -89.458191H194.65577489999998V-80.9535313H186.15147z" opacity=".8287621" transform="rotate(6.257 -1086.864 -697.675)"/>
  <path fill="#81e5eb" fill-opacity=".8627451" d="M197.73943 -77.869759H205.5702811V-70.0385808H197.73943z" opacity=".82687617" transform="rotate(6.257 -1086.864 -697.675)"/>
  <path fill="#6bebe3" fill-opacity=".8627451" d="M152.73454 -122.87652H160.5653911V-115.0453418H152.73454z" opacity=".88568941" transform="rotate(6.257 -1086.864 -697.675)"/>
  <path fill="#55c9e5" fill-opacity=".8627451" d="M107.39293 -111.96157H115.8972349V-103.45691029999999H107.39293z" opacity=".79557734" transform="rotate(6.257 -1086.864 -697.675)"/>
  <path fill="#8dece7" fill-opacity=".8627451" d="M118.98087 -100.37314H126.8117211V-92.54196180000001H118.98087z" opacity=".88663911" transform="rotate(6.257 -1086.864 -697.675)"/>
  <path fill="#7edeed" fill-opacity=".8627451" d="M186.15147 -33.199726H194.65577489999998V-24.6950663H186.15147z" opacity=".95358199" transform="rotate(6.257 -1086.864 -697.675)"/>
  <path fill="#82eae4" fill-opacity=".8627451" d="M175.23698 -44.114681H183.06783109999998V-36.283502799999994H175.23698z" opacity=".89951633" transform="rotate(6.257 -1086.864 -697.675)"/>
  <path fill="#000000" fill-opacity=".64822136" d="M163.98576-80.120094H171.8166111V-72.2889149H163.98576zM154.98479-80.120094H162.8156411V-72.2889149H154.98479zM154.98479-71.118736H162.8156411V-63.2875569H154.98479zM145.98381-71.118736H153.8146611V-63.2875569H145.98381zM145.98381-62.117386H153.8146611V-54.2862069H145.98381zM136.98283-62.117386H144.8136811V-54.2862069H136.98283zM175.62404-109.76155H183.4548911V-101.9303709H175.62404zM184.62502-100.76019H192.4558711V-92.9290109H184.62502zM184.62502-109.76155H192.4558711V-101.9303709H184.62502zM154.98479-89.121452H162.8156411V-81.2902729H154.98479zM145.98381-80.120094H153.8146611V-72.2889149H145.98381zM136.98283-71.118736H144.8136811V-63.2875569H136.98283zM127.98185-62.117386H135.8127011V-54.2862069H127.98185zM136.98283-53.116032H144.8136811V-45.2848529H136.98283zM127.98185-53.116032H135.8127011V-45.2848529H127.98185zM118.98087-53.116032H126.8117211V-45.2848529H118.98087zM127.98185-44.114677H135.8127011V-36.2834979H127.98185zM118.98087-44.114677H126.8117211V-36.2834979H118.98087zM109.9799-44.114677H117.8107511V-36.2834979H109.9799zM118.98087-35.113323H126.8117211V-27.2821439H118.98087zM109.9799-35.113323H117.8107511V-27.2821439H109.9799zM100.97892-35.113323H108.8097711V-27.2821439H100.97892zM109.9799-26.111967H117.8107511V-18.2807879H109.9799zM100.97892-26.111967H108.8097711V-18.2807879H100.97892zM91.977943-26.111969H99.8087941V-18.2807899H91.977943zM100.97892-17.110615H108.8097711V-9.2794359H100.97892zM91.977943-17.110615H99.8087941V-9.2794359H91.977943zM82.976967-17.110615H90.8078181V-9.2794359H82.976967zM91.977943-8.1092615H99.8087941V-.2780824000000006H91.977943zM82.976967-8.1092615H90.8078181V-.2780824000000006H82.976967z" opacity=".98690245" transform="rotate(6.257 -1086.864 -697.675)"/>
  <g fill="#edecec" fill-opacity=".90118575" style="line-height:125%;-inkscape-font-specification:'URW Gothic Semi-Bold'" font-weight="600" font-size="48" font-family="Montserrat" letter-spacing="-.38999999" word-spacing="6.86999989" opacity=".96696574" text-anchor="middle">
    <path d="m 34.654443,53.176001 h 8.448 l 10.464,20.64 10.368,-20.64 h 8.4 v 33.6 h -6.816 v -22.704 l -9.552,19.296 h -4.896 l -9.6,-19.296 v 22.704 h -6.816 z" style="line-height:169.60000992%;-inkscape-font-specification:'Montserrat Semi-Bold';text-align:center" opacity=".96223414" transform="translate(-5.78 -4.35)"/>
    <path d="m 103.69419,63.688001 q -1.728,-2.064 -4.079996,-3.216 -2.304,-1.2 -4.656,-1.2 -2.832,0 -5.184,1.392 -2.352,1.392 -3.696,3.792 -1.344,2.4 -1.344,5.328 0,2.928 1.344,5.376 1.344,2.4 3.696,3.84 2.352,1.392 5.184,1.392 2.256,0 4.56,-1.056 2.351996,-1.104 4.175996,-2.928 l 4.464,4.848 q -2.688,2.784 -6.336,4.416 -3.599996,1.632 -7.247996,1.632 -4.944,0 -8.976,-2.256 -4.032,-2.304 -6.336,-6.288 -2.304,-3.984 -2.304,-8.88 0,-4.848 2.352,-8.784 2.352,-3.936 6.432,-6.192 4.128,-2.256 9.12,-2.256 3.648,0 7.199996,1.536 3.552,1.488 6.048,4.08 z" style="line-height:169.60000992%;-inkscape-font-specification:'Montserrat Semi-Bold';text-align:center" opacity=".99565298" transform="translate(-5.78 -4.35)"/>
  </g>
</svg>
