<?xml version="1.0" encoding="UTF-8" standalone="no"?>
<svg
   xmlns:osb="http://www.openswatchbook.org/uri/2009/osb"
   xmlns:dc="http://purl.org/dc/elements/1.1/"
   xmlns:cc="http://creativecommons.org/ns#"
   xmlns:rdf="http://www.w3.org/1999/02/22-rdf-syntax-ns#"
   xmlns:svg="http://www.w3.org/2000/svg"
   xmlns="http://www.w3.org/2000/svg"
   xmlns:xlink="http://www.w3.org/1999/xlink"
   xmlns:sodipodi="http://sodipodi.sourceforge.net/DTD/sodipodi-0.dtd"
   xmlns:inkscape="http://www.inkscape.org/namespaces/inkscape"
   id="Layer_1"
   viewBox="0 0 213.16217 93.885132"
   height="93.885132"
   width="213.16217"
   version="1.1"
   sodipodi:docname="icon.svg"
   inkscape:version="0.91 r13725">
  <metadata
     id="metadata4668">
    <rdf:RDF>
      <cc:Work
         rdf:about="">
        <dc:format>image/svg+xml</dc:format>
        <dc:type
           rdf:resource="http://purl.org/dc/dcmitype/StillImage" />
        <dc:title>icon_intellij_rust</dc:title>
      </cc:Work>
    </rdf:RDF>
  </metadata>
  <sodipodi:namedview
     pagecolor="#ffffff"
     bordercolor="#666666"
     borderopacity="1"
     objecttolerance="10"
     gridtolerance="10"
     guidetolerance="10"
     inkscape:pageopacity="0"
     inkscape:pageshadow="2"
     inkscape:window-width="1440"
     inkscape:window-height="800"
     id="namedview4666"
     showgrid="false"
     showguides="true"
     inkscape:guide-bbox="true"
     inkscape:zoom="4.2732911"
     inkscape:cx="109.74536"
     inkscape:cy="46.896066"
     inkscape:window-x="0"
     inkscape:window-y="0"
     inkscape:window-maximized="1"
     inkscape:current-layer="layer6"
     inkscape:measure-start="0,0"
     inkscape:measure-end="0,0"
     fit-margin-top="0"
     fit-margin-left="0"
     fit-margin-right="0"
     fit-margin-bottom="0" />
  <defs
     id="defs4221">
    <linearGradient
       spreadMethod="pad"
       x1="598.44"
       x2="535.21997"
       gradientTransform="matrix(1.4727,0,0,2.2155,-235.17,-536.78)"
       y1="560.70001"
       gradientUnits="userSpaceOnUse"
       y2="601.16998"
       id="linearGradient5451">
      <stop
         style="stop-color:#67ce00;stop-opacity:1"
         offset="0"
         stop-color="#f2aa29"
         id="stop5447" />
      <stop
         style="stop-color:#05d3ff;stop-opacity:1"
         offset="1"
         stop-color="#eafe13"
         id="stop5449" />
    </linearGradient>
    <inkscape:perspective
       sodipodi:type="inkscape:persp3d"
       inkscape:vp_x="-200.59213 : 131.62811 : 1"
       inkscape:vp_y="0 : 2335.5121 : 0"
       inkscape:vp_z="314.12918 : 131.62811 : 1"
       inkscape:persp3d-origin="56.768521 : 77.132812 : 1"
       id="perspective5250" />
    <linearGradient
       id="linearGradient4964"
       osb:paint="solid">
      <stop
         style="stop-color:#000f00;stop-opacity:1;"
         offset="0"
         id="stop4962" />
    </linearGradient>
    <linearGradient
       id="linearGradient4257"
       y2="320.82999"
       gradientUnits="userSpaceOnUse"
       y1="258.42999"
       gradientTransform="matrix(1.4727,0,0,2.2155,-650.79,276.01)"
       x2="1007.1"
       x1="1253.7">
      <stop
         id="stop4253"
         stop-color="#dcf800"
         offset="0"
         style="stop-color:#00f800;stop-opacity:1" />
      <stop
         id="stop4255"
         stop-color="#96ff00"
         offset="1"
         style="stop-color:#e5ff00;stop-opacity:1" />
    </linearGradient>
    <linearGradient
       id="linearGradient4265"
       y2="601.16998"
       gradientUnits="userSpaceOnUse"
       y1="560.70001"
       gradientTransform="matrix(1.4727,0,0,2.2155,-235.17,-536.78)"
       x2="535.21997"
       x1="598.44"
       spreadMethod="pad">
      <stop
         id="stop4261"
         stop-color="#f2aa29"
         offset="0"
         style="stop-color:#009cff;stop-opacity:1" />
      <stop
         id="stop4263"
         stop-color="#eafe13"
         offset="1"
         style="stop-color:#0fc665;stop-opacity:1" />
    </linearGradient>
    <linearGradient
       id="linearGradient5010"
       y2="804.75"
       gradientUnits="userSpaceOnUse"
       y1="723.23999"
       x2="625.60999"
       x1="561.25">
      <stop
         id="stop5006"
         stop-color="#d5f229"
         offset="0" />
      <stop
         id="stop5008"
         stop-color="#f2ba29"
         offset="1" />
    </linearGradient>
    <clipPath
       clipPathUnits="userSpaceOnUse"
       id="clipPath5006">
      <path
         style="opacity:0.128;fill:#000000;fill-opacity:1;stroke:#000000;stroke-width:0.70327324;stroke-linecap:square;stroke-linejoin:miter;stroke-miterlimit:4;stroke-dasharray:none;stroke-opacity:1"
         d="m 631.5481,754.46752 a 42.429877,43.419845 0 0 1 -42.42987,43.41984 42.429877,43.419845 0 0 1 -42.42988,-43.41984 42.429877,43.419845 0 0 1 42.42988,-43.41984 42.429877,43.419845 0 0 1 42.42987,43.41984 z"
         id="path5008"
         inkscape:connector-curvature="0" />
    </clipPath>
    <linearGradient
       inkscape:collect="always"
       xlink:href="#linearGradient4257"
       id="linearGradient4603"
       x1="-62.605366"
       y1="120.32459"
       x2="50.316921"
       y2="120.32459"
       gradientUnits="userSpaceOnUse" />
    <linearGradient
       inkscape:collect="always"
       xlink:href="#linearGradient4265"
       id="linearGradient4611"
       x1="14.070946"
       y1="89.955032"
       x2="83.829712"
       y2="14.161116"
       gradientUnits="userSpaceOnUse" />
    <clipPath
       clipPathUnits="userSpaceOnUse"
       id="clipPath4615">
      <circle
         style="opacity:1;fill:#00f800;fill-opacity:1;stroke:none;stroke-width:0.92220473;stroke-linecap:square;stroke-linejoin:miter;stroke-miterlimit:4;stroke-dasharray:none;stroke-opacity:1"
         id="circle4617"
         cx="70"
         cy="70"
         r="46.942566"
         transform="rotate(47.69349)" />
    </clipPath>
    <clipPath
       clipPathUnits="userSpaceOnUse"
       id="clipPath4619">
      <circle
         style="opacity:1;fill:#00f800;fill-opacity:1;stroke:none;stroke-width:0.92220473;stroke-linecap:square;stroke-linejoin:miter;stroke-miterlimit:4;stroke-dasharray:none;stroke-opacity:1"
         id="circle4621"
         cx="70"
         cy="70"
         r="46.942566" />
    </clipPath>
    <linearGradient
       inkscape:collect="always"
       xlink:href="#linearGradient5451"
       id="linearGradient5445"
       x1="68.344597"
       y1="70"
       x2="230.2196"
       y2="70"
       gradientUnits="userSpaceOnUse"
       gradientTransform="matrix(1.0370656,0,0,1,-2.5332358,0)" />
  </defs>
  <title
     id="title4240">icon_intellij_rust</title>
  <g
     inkscape:groupmode="layer"
     id="layer5"
     inkscape:label="Dev Color Background"
     style="display:inline"
     transform="translate(-23.057434,-23.057434)">
    <path
       style="opacity:1;fill:url(#linearGradient5445);fill-opacity:1;stroke:none;stroke-width:1.76055872;stroke-linecap:square;stroke-linejoin:miter;stroke-miterlimit:4;stroke-dasharray:none;stroke-opacity:1"
       d="M 68.344597,33.344601 H 211.47771 l 24.7419,73.310799 H 68.344597 Z"
       id="rect4633"
       inkscape:connector-curvature="0"
       sodipodi:nodetypes="ccccc" />
  </g>
  <g
     inkscape:groupmode="layer"
     id="layer4"
     inkscape:label="Dev Background"
     style="display:inline"
     transform="translate(-23.057434,-23.057434)">
    <path
       sodipodi:nodetypes="ccccc"
       inkscape:connector-curvature="0"
       id="path5437"
       d="M 74.020273,38.2196 H 207.2605 l 21.32363,63.5608 H 74.020273 Z"
       style="opacity:1;fill:#333333;fill-opacity:0.96837942;stroke:none;stroke-width:1.57149899;stroke-linecap:square;stroke-linejoin:miter;stroke-miterlimit:4;stroke-dasharray:none;stroke-opacity:1" />
  </g>
  <g
     inkscape:groupmode="layer"
     id="layer6"
     inkscape:label="Dev Text"
     style="display:inline"
     transform="translate(-23.057434,-23.057434)">
    <g
       style="font-style:normal;font-weight:normal;font-size:40px;line-height:125%;font-family:sans-serif;letter-spacing:0px;word-spacing:0px;fill:#000000;fill-opacity:1;stroke:none;stroke-width:1px;stroke-linecap:butt;stroke-linejoin:miter;stroke-opacity:1"
       id="text5465">
      <path
         d="m 136.74104,53.08 q 5.136,0 9.168,2.16 4.032,2.112 6.24,5.952 2.256,3.792 2.256,8.688 0,4.896 -2.304,8.736 -2.256,3.792 -6.336,5.952 -4.08,2.112 -9.312,2.112 l -13.968,0 0,-33.6 14.256,0 z m 0.192,27.216 q 2.784,0 4.992,-1.296 2.256,-1.344 3.504,-3.696 1.248,-2.352 1.248,-5.376 0,-3.024 -1.344,-5.424 -1.296,-2.4 -3.6,-3.696 -2.256,-1.344 -5.136,-1.344 l -6.528,0 0,20.832 6.864,0 z"
         style="font-style:normal;font-variant:normal;font-weight:600;font-stretch:normal;font-size:48px;line-height:1000%;font-family:Montserrat;-inkscape-font-specification:'Montserrat Semi-Bold';fill:#ffffff;fill-opacity:0.92941176"
         id="path3473" />
      <path
         d="m 170.27279,60.616 q 6.24,0 9.456,3.6 3.264,3.6 3.264,10.032 0,1.152 -0.048,1.776 l -18.528,0 q 0.624,2.448 2.4,3.84 1.776,1.344 4.272,1.344 1.824,0 3.504,-0.672 1.68,-0.72 3.024,-2.064 l 3.888,3.936 q -1.968,2.208 -4.8,3.408 -2.784,1.152 -6.24,1.152 -4.08,0 -7.152,-1.632 -3.024,-1.632 -4.704,-4.608 -1.632,-2.976 -1.632,-6.864 0,-3.936 1.68,-6.912 1.68,-3.024 4.704,-4.656 3.024,-1.68 6.912,-1.68 z m 5.76,11.04 q -0.096,-2.544 -1.632,-4.08 -1.536,-1.536 -4.08,-1.536 -2.4,0 -4.032,1.536 -1.584,1.488 -2.016,4.08 l 11.76,0 z"
         style="font-style:normal;font-variant:normal;font-weight:600;font-stretch:normal;font-size:48px;line-height:1000%;font-family:Montserrat;-inkscape-font-specification:'Montserrat Semi-Bold';fill:#ffffff;fill-opacity:0.92941176"
         id="path3475" />
      <path
         d="m 183.33254,60.904 7.632,-0.048 6.096,18.816 6.048,-18.816 7.344,0 -9.744,25.824 -7.584,0 -9.792,-25.776 z"
         style="font-style:normal;font-variant:normal;font-weight:600;font-stretch:normal;font-size:48px;line-height:1000%;font-family:Montserrat;-inkscape-font-specification:'Montserrat Semi-Bold';fill:#ffffff;fill-opacity:0.92941176"
         id="path3477" />
    </g>
  </g>
  <g
     inkscape:groupmode="layer"
     id="layer3"
     inkscape:label="Circle Background"
     sodipodi:insensitive="true"
     transform="translate(-23.057434,-23.057434)">
    <path
       style="opacity:1;fill:url(#linearGradient4611);fill-opacity:1;stroke:none;stroke-width:0.92220473;stroke-linecap:square;stroke-linejoin:miter;stroke-miterlimit:4;stroke-dasharray:none;stroke-opacity:1"
       d="M 54.510134,13.006757 97.782418,20.958678 21.774817,104.47088 14.307432,45.405409 Z"
       id="rect4590"
       inkscape:connector-curvature="0"
       sodipodi:nodetypes="ccccc"
       clip-path="url(#clipPath4619)" />
    <path
       transform="rotate(-47.69349)"
       style="opacity:1;fill:url(#linearGradient4603);fill-opacity:1;stroke:none;stroke-width:0.96206522;stroke-linecap:square;stroke-linejoin:miter;stroke-miterlimit:4;stroke-dasharray:none;stroke-opacity:1"
       d="M -62.605366,86.422653 H 50.316921 l -11.517854,62.747027 -81.93894,5.05685 z"
       id="rect4585"
       inkscape:connector-curvature="0"
       sodipodi:nodetypes="ccccc"
       clip-path="url(#clipPath4615)" />
  </g>
  <g
     inkscape:groupmode="layer"
     id="layer2"
     inkscape:label="Dark Circle"
     transform="translate(-23.057434,-23.057434)">
    <ellipse
       cy="70"
       cx="70"
       id="path4670"
       style="opacity:1;fill:#333333;fill-opacity:0.96837942;stroke:none;stroke-width:0.92220467;stroke-linecap:square;stroke-linejoin:miter;stroke-miterlimit:4;stroke-dasharray:none;stroke-opacity:1"
       rx="42.251881"
       ry="42.133636" />
  </g>
  <g
     inkscape:groupmode="layer"
     id="layer1"
     inkscape:label="MC"
     transform="translate(-23.057434,-23.057434)">
    <g
       style="font-style:normal;font-variant:normal;font-weight:600;font-stretch:normal;font-size:40px;line-height:125%;font-family:'URW Gothic';-inkscape-font-specification:'URW Gothic Semi-Bold';letter-spacing:0px;word-spacing:0px;fill:#ffffff;fill-opacity:0.92885377;stroke:none;stroke-width:1px;stroke-linecap:butt;stroke-linejoin:miter;stroke-opacity:1"
       id="text5012">
      <path
         d="m 34.654443,53.176001 8.448,0 10.464,20.64 10.368,-20.64 8.4,0 0,33.6 -6.816,0 0,-22.704 -9.552,19.296 -4.896,0 -9.6,-19.296 0,22.704 -6.816,0 0,-33.6 z"
         style="font-style:normal;font-variant:normal;font-weight:600;font-stretch:normal;font-size:48px;line-height:169.60000992%;font-family:Montserrat;-inkscape-font-specification:'Montserrat Semi-Bold';text-align:center;letter-spacing:-0.38999999px;word-spacing:6.86999989px;text-anchor:middle;fill:#ffffff;fill-opacity:0.92885377"
         id="path3480" />
      <path
         d="m 103.69419,63.688001 q -1.728,-2.064 -4.079996,-3.216 -2.304,-1.2 -4.656,-1.2 -2.832,0 -5.184,1.392 -2.352,1.392 -3.696,3.792 -1.344,2.4 -1.344,5.328 0,2.928 1.344,5.376 1.344,2.4 3.696,3.84 2.352,1.392 5.184,1.392 2.256,0 4.56,-1.056 2.351996,-1.104 4.175996,-2.928 l 4.464,4.848 q -2.688,2.784 -6.336,4.416 -3.599996,1.632 -7.247996,1.632 -4.944,0 -8.976,-2.256 -4.032,-2.304 -6.336,-6.288 -2.304,-3.984 -2.304,-8.88 0,-4.848 2.352,-8.784 2.352,-3.936 6.432,-6.192 4.128,-2.256 9.12,-2.256 3.648,0 7.199996,1.536 3.552,1.488 6.048,4.08 l -4.416,5.424 z"
         style="font-style:normal;font-variant:normal;font-weight:600;font-stretch:normal;font-size:48px;line-height:169.60000992%;font-family:Montserrat;-inkscape-font-specification:'Montserrat Semi-Bold';text-align:center;letter-spacing:-0.38999999px;word-spacing:6.86999989px;text-anchor:middle;fill:#ffffff;fill-opacity:0.92885377"
         id="path3482" />
    </g>
  </g>
</svg>
