<svg xmlns="http://www.w3.org/2000/svg" width="100.14414" height="100.14414" viewBox="0 0 93.885131 93.885134">
  <defs>
    <clipPath id="a">
      <circle cx="70" cy="70" r="46.942566" fill="#13f102" stroke-width=".92220473" transform="rotate(47.693)" opacity=".99599627" stroke-linecap="square"/>
    </clipPath>
  </defs>
  <path fill="#509ef5" d="M -75.375459,96.597955 -2.2943372,30.499705 65.472629,105.16537 -7.3689859,171.17356 Z" transform="rotate(-47.693 -37.61 14.553)" clip-path="url(#a)" opacity=".97848744"/>
  <ellipse cx="70" cy="70" fill="#313030" fill-opacity=".96837942" rx="42.251881" ry="42.133636" opacity=".96676175" transform="translate(-23.057 -23.057)"/>
  <g fill="#edecec" fill-opacity=".96837944" style="line-height:125%;-inkscape-font-specification:'URW Gothic Semi-Bold'" font-weight="600" font-size="48" font-family="Montserrat" letter-spacing="-.38999999" word-spacing="6.86999989" opacity=".96696574" text-anchor="middle">
    <path d="m 34.654443,53.176001 h 8.448 l 10.464,20.64 10.368,-20.64 h 8.4 v 33.6 h -6.816 v -22.704 l -9.552,19.296 h -4.896 l -9.6,-19.296 v 22.704 h -6.816 z" style="line-height:169.60000992%;-inkscape-font-specification:'Montserrat Semi-Bold';text-align:center" opacity=".96223414" transform="translate(-23.057 -23.057)"/>
    <path d="m 103.69419,63.688001 q -1.728,-2.064 -4.079996,-3.216 -2.304,-1.2 -4.656,-1.2 -2.832,0 -5.184,1.392 -2.352,1.392 -3.696,3.792 -1.344,2.4 -1.344,5.328 0,2.928 1.344,5.376 1.344,2.4 3.696,3.84 2.352,1.392 5.184,1.392 2.256,0 4.56,-1.056 2.351996,-1.104 4.175996,-2.928 l 4.464,4.848 q -2.688,2.784 -6.336,4.416 -3.599996,1.632 -7.247996,1.632 -4.944,0 -8.976,-2.256 -4.032,-2.304 -6.336,-6.288 -2.304,-3.984 -2.304,-8.88 0,-4.848 2.352,-8.784 2.352,-3.936 6.432,-6.192 4.128,-2.256 9.12,-2.256 3.648,0 7.199996,1.536 3.552,1.488 6.048,4.08 z" style="line-height:169.60000992%;-inkscape-font-specification:'Montserrat Semi-Bold';text-align:center" opacity=".99565298" transform="translate(-23.057 -23.057)"/>
  </g>
</svg>
