<?xml version="1.0" encoding="UTF-8" standalone="no"?>
<svg xmlns:rdf="http://www.w3.org/1999/02/22-rdf-syntax-ns#" xmlns="http://www.w3.org/2000/svg" height="125mm" width="125mm" version="1.1" xmlns:cc="http://creativecommons.org/ns#" 
xmlns:dc="http://purl.org/dc/elements/1.1/" viewBox="0 0 124.94948 124.94948">
<defs>
<clipPath id="a" clipPathUnits="userSpaceOnUse">
<rect transform="rotate(45)" height="113" width="113" y="92.1" x="48.6" fill="#1f0"/>
</clipPath>
</defs>
<g transform="translate(-42.5 -86)">
<path d="m161 325v117l23.1-23.1v-70.9h70.9l23.1-23.1zm355 0 23.1 23.1h70.9v70.9l23.1 23.1v-117zm-355 355v117h117l-23.1-23.1h-70.9v-70.9zm472 0-23.1 23.1v70.9h-70.9l-23.1 23.1h117z" transform="scale(.265)" fill="#3c4d5c"/>
</g>
<g transform="translate(-42.5 -86)">
<path d="m-97.2 166 53.2-53.2h26.5l53.2 53.2v26.5l-53.2 53.2h-26.5l-53.2-53.2z" clip-path="url(#a)" transform="rotate(-45)" fill="#234460"/>
</g>
<g transform="translate(-42.5 -86)">
<path d="m63.6 107v82.4h82.8v-82.4zm4.71 4.51h21v21h-21zm26.2 0h20.5v21h-20.5zm26.2 0h21v21h-21zm-52.4 26.2h21v21h-21.3zm26.2 0h20.2v21h-20.5zm26.2 0h21v21h-21zm-52.4 26.2h21v21h-21.3zm26.2 0h20.2v21h-20.5zm26.2 
0h21v21h-21z" fill="#d9e3ec"/>
</g>
</svg>

